<svg width="62" height="58" viewBox="0 0 62 58" fill="none" xmlns="http://www.w3.org/2000/svg">
<path d="M62 55.2812V20.8438C62 20.6034 61.9039 20.3729 61.7329 20.2029C61.562 20.033 61.33 19.9375 61.0882 19.9375C60.8464 19.9375 60.6145 20.033 60.4435 20.2029C60.2725 20.3729 60.1765 20.6034 60.1765 20.8438V55.2812C60.1765 55.5216 60.0804 55.7521 59.9094 55.9221C59.7384 56.092 59.5065 56.1875 59.2647 56.1875H2.73529C2.49348 56.1875 2.26157 56.092 2.09058 55.9221C1.91959 55.7521 1.82353 55.5216 1.82353 55.2812V20.8438C1.82353 20.6034 1.72747 20.3729 1.55648 20.2029C1.38549 20.033 1.15358 19.9375 0.911765 19.9375C0.66995 19.9375 0.438039 20.033 0.26705 20.2029C0.0960607 20.3729 0 20.6034 0 20.8438L0 55.2812C0 56.7802 1.22724 58 2.73529 58H59.2647C60.7728 58 62 56.7802 62 55.2812Z" fill="white"/>
<path d="M8.20588 41.6875C7.96407 41.6875 7.73216 41.783 7.56117 41.9529C7.39018 42.1229 7.29412 42.3534 7.29412 42.5938C7.29412 42.8341 7.39018 43.0646 7.56117 43.2346C7.73216 43.4045 7.96407 43.5 8.20588 43.5H10.9412V49.8438C10.9412 50.0841 11.0372 50.3146 11.2082 50.4846C11.3792 50.6545 11.6111 50.75 11.8529 50.75C12.0948 50.75 12.3267 50.6545 12.4977 50.4846C12.6686 50.3146 12.7647 50.0841 12.7647 49.8438V43.5H23.7059V49.8438C23.7059 50.0841 23.8019 50.3146 23.9729 50.4846C24.1439 50.6545 24.3758 50.75 24.6176 50.75C24.8595 50.75 25.0914 50.6545 25.2624 50.4846C25.4334 50.3146 25.5294 50.0841 25.5294 49.8438V43.5H36.4706V49.8438C36.4706 50.0841 36.5666 50.3146 36.7376 50.4846C36.9086 50.6545 37.1405 50.75 37.3824 50.75C37.6242 50.75 37.8561 50.6545 38.0271 50.4846C38.1981 50.3146 38.2941 50.0841 38.2941 49.8438V43.5H49.2353V49.8438C49.2353 50.0841 49.3314 50.3146 49.5023 50.4846C49.6733 50.6545 49.9052 50.75 50.1471 50.75C50.3889 50.75 50.6208 50.6545 50.7918 50.4846C50.9628 50.3146 51.0588 50.0841 51.0588 49.8438V43.5H53.7941C54.0359 43.5 54.2678 43.4045 54.4388 43.2346C54.6098 43.0646 54.7059 42.8341 54.7059 42.5938C54.7059 42.3534 54.6098 42.1229 54.4388 41.9529C54.2678 41.783 54.0359 41.6875 53.7941 41.6875H51.0588V32.625H53.7941C54.0359 32.625 54.2678 32.5295 54.4388 32.3596C54.6098 32.1896 54.7059 31.9591 54.7059 31.7188C54.7059 31.4784 54.6098 31.2479 54.4388 31.0779C54.2678 30.908 54.0359 30.8125 53.7941 30.8125H51.0588V22.6562C51.0588 22.4159 50.9628 22.1854 50.7918 22.0154C50.6208 21.8455 50.3889 21.75 50.1471 21.75C49.9052 21.75 49.6733 21.8455 49.5023 22.0154C49.3314 22.1854 49.2353 22.4159 49.2353 22.6562V30.8125H38.2941V22.6562C38.2941 22.4159 38.1981 22.1854 38.0271 22.0154C37.8561 21.8455 37.6242 21.75 37.3824 21.75C37.1405 21.75 36.9086 21.8455 36.7376 22.0154C36.5666 22.1854 36.4706 22.4159 36.4706 22.6562V30.8125H25.5294V22.6562C25.5294 22.4159 25.4334 22.1854 25.2624 22.0154C25.0914 21.8455 24.8595 21.75 24.6176 21.75C24.3758 21.75 24.1439 21.8455 23.9729 22.0154C23.8019 22.1854 23.7059 22.4159 23.7059 22.6562V30.8125H12.7647V22.6562C12.7647 22.4159 12.6686 22.1854 12.4977 22.0154C12.3267 21.8455 12.0948 21.75 11.8529 21.75C11.6111 21.75 11.3792 21.8455 11.2082 22.0154C11.0372 22.1854 10.9412 22.4159 10.9412 22.6562V30.8125H8.20588C7.96407 30.8125 7.73216 30.908 7.56117 31.0779C7.39018 31.2479 7.29412 31.4784 7.29412 31.7188C7.29412 31.9591 7.39018 32.1896 7.56117 32.3596C7.73216 32.5295 7.96407 32.625 8.20588 32.625H10.9412V41.6875H8.20588ZM49.2353 32.625V41.6875H38.2941V32.625H49.2353ZM36.4706 32.625V41.6875H25.5294V32.625H36.4706ZM12.7647 32.625H23.7059V41.6875H12.7647V32.625ZM51.9706 5.4375H59.7206C59.8792 5.4375 60.1765 5.4375 60.1765 6.34375V14.5H1.82353V6.34375C1.82353 6.1034 1.91959 5.87289 2.09058 5.70293C2.26157 5.53298 2.49348 5.4375 2.73529 5.4375H10.0294C10.2712 5.4375 10.5031 5.34202 10.6741 5.17207C10.8451 5.00211 10.9412 4.7716 10.9412 4.53125C10.9412 4.2909 10.8451 4.06039 10.6741 3.89043C10.5031 3.72048 10.2712 3.625 10.0294 3.625H2.73529C1.22724 3.625 0 4.84481 0 6.34375V15.4062C0 15.6466 0.0960607 15.8771 0.26705 16.0471C0.438039 16.217 0.66995 16.3125 0.911765 16.3125H61.0882C61.33 16.3125 61.562 16.217 61.7329 16.0471C61.9039 15.8771 62 15.6466 62 15.4062V6.34375C62 4.33913 60.822 3.625 59.7206 3.625H51.9706C51.7288 3.625 51.4969 3.72048 51.3259 3.89043C51.1549 4.06039 51.0588 4.2909 51.0588 4.53125C51.0588 4.7716 51.1549 5.00211 51.3259 5.17207C51.4969 5.34202 51.7288 5.4375 51.9706 5.4375Z" fill="white"/>
<path d="M41.0296 5.4375C41.2714 5.4375 41.5033 5.34202 41.6743 5.17207C41.8453 5.00211 41.9413 4.7716 41.9413 4.53125C41.9413 4.2909 41.8453 4.06039 41.6743 3.89043C41.5033 3.72048 41.2714 3.625 41.0296 3.625H20.9707C20.7289 3.625 20.497 3.72048 20.326 3.89043C20.155 4.06039 20.059 4.2909 20.059 4.53125C20.059 4.7716 20.155 5.00211 20.326 5.17207C20.497 5.34202 20.7289 5.4375 20.9707 5.4375H41.0296ZM16.4119 8.15625V0.90625C16.4119 0.665898 16.3158 0.435389 16.1449 0.265434C15.9739 0.0954797 15.742 0 15.5001 0C15.2583 0 15.0264 0.0954797 14.8554 0.265434C14.6844 0.435389 14.5884 0.665898 14.5884 0.90625V8.15625C14.5884 8.3966 14.6844 8.62711 14.8554 8.79707C15.0264 8.96702 15.2583 9.0625 15.5001 9.0625C15.742 9.0625 15.9739 8.96702 16.1449 8.79707C16.3158 8.62711 16.4119 8.3966 16.4119 8.15625ZM46.5001 9.0625C46.742 9.0625 46.9739 8.96702 47.1449 8.79707C47.3158 8.62711 47.4119 8.3966 47.4119 8.15625V0.90625C47.4119 0.665898 47.3158 0.435389 47.1449 0.265434C46.9739 0.0954797 46.742 0 46.5001 0C46.2583 0 46.0264 0.0954797 45.8554 0.265434C45.6844 0.435389 45.5884 0.665898 45.5884 0.90625V8.15625C45.5884 8.3966 45.6844 8.62711 45.8554 8.79707C46.0264 8.96702 46.2583 9.0625 46.5001 9.0625Z" fill="white"/>
</svg>
