<svg width="62" height="62" viewBox="0 0 62 62" fill="none" xmlns="http://www.w3.org/2000/svg">
<g clip-path="url(#clip0_665_39)">
<path d="M54.9357 2.62357C55.0452 2.51359 55.1267 2.37892 55.1733 2.23088C55.2198 2.08284 55.2302 1.92578 55.2034 1.77291C55.1766 1.62004 55.1135 1.47584 55.0194 1.35245C54.9253 1.22906 54.8029 1.1301 54.6625 1.06388C52.4975 0.0414674 50.0691 -0.285613 47.7107 0.127565C45.3524 0.540743 43.1798 1.67391 41.4914 3.37145C38.2015 6.68263 37.0526 11.8829 38.5871 16.2306L16.2302 38.5874C14.9882 38.1496 13.6799 37.9294 12.363 37.9364C9.04212 37.9364 5.82199 39.2578 3.52993 41.5634C1.84744 43.2387 0.710247 45.3832 0.267369 47.7158C-0.175508 50.0484 0.0965833 52.4604 1.04799 54.6358C1.11035 54.7814 1.20761 54.9094 1.33118 55.0085C1.45475 55.1077 1.60083 55.1749 1.75651 55.2042C1.9122 55.2335 2.0727 55.224 2.22385 55.1765C2.375 55.1291 2.51215 55.0452 2.62318 54.9322L9.38699 48.1335C9.83262 47.684 10.5514 47.6239 10.9234 48.0018L13.8432 51.0572C14.2676 51.4854 14.2482 52.1461 13.8006 52.5975L7.06199 59.3788C6.95248 59.4885 6.87098 59.6231 6.82437 59.771C6.77776 59.9189 6.76742 60.0758 6.7942 60.2286C6.82099 60.3813 6.88412 60.5254 6.97828 60.6486C7.07243 60.7718 7.19484 60.8705 7.33518 60.9365C8.90311 61.6845 10.618 62.0737 12.3552 62.0758C15.401 62.0758 18.2937 60.8513 20.5063 58.627C23.7962 55.3178 24.9451 50.1175 23.4087 45.7698L45.7655 23.411C47.0082 23.8487 48.3171 24.0689 49.6347 24.062C52.9556 24.062 56.1757 22.7406 58.4677 20.435C60.1502 18.7597 61.2874 16.6153 61.7303 14.2827C62.1732 11.95 61.9011 9.53804 60.9497 7.3627C60.8873 7.21707 60.7901 7.08904 60.6665 6.98991C60.5429 6.89078 60.3968 6.8236 60.2412 6.7943C60.0855 6.765 59.925 6.77448 59.7738 6.82192C59.6227 6.86935 59.4855 6.95327 59.3745 7.06626L52.6107 13.8649C52.4017 14.067 52.1214 14.1783 51.8307 14.1746C51.5401 14.171 51.2626 14.0527 51.0587 13.8456L48.1544 10.9413C48.0508 10.8418 47.9683 10.7224 47.9119 10.5903C47.8555 10.4582 47.8264 10.3161 47.8262 10.1725C47.826 10.0289 47.8548 9.88666 47.9109 9.75442C47.967 9.62218 48.0491 9.50262 48.1525 9.40289L54.9357 2.62357V2.62357ZM46.7827 12.3111L49.687 15.2154C50.8476 16.3818 52.8354 16.3876 53.9844 15.2328L59.6612 9.52882C60.1109 11.2047 60.1105 12.9696 59.6601 14.6453C59.2097 16.321 58.3253 17.8483 57.096 19.0729C55.1643 21.0163 52.4479 22.1284 49.6366 22.1284C48.3133 22.1284 47.0597 21.8804 45.9108 21.3921C45.7332 21.3165 45.5371 21.2956 45.3476 21.3322C45.1581 21.3688 44.9838 21.4612 44.8471 21.5975L21.5971 44.8475C21.461 44.9835 21.3686 45.157 21.3317 45.3458C21.2948 45.5346 21.315 45.7301 21.3898 45.9073C22.9456 49.6079 21.9982 54.3839 19.1365 57.263C17.9034 58.5137 16.351 59.4023 14.648 59.8321C12.9451 60.2618 11.1569 60.2163 9.47806 59.7004L15.1762 53.9654C16.3794 52.7544 16.3988 50.877 15.2324 49.7068L12.3146 46.6513C11.1889 45.5179 9.18743 45.5876 8.01718 46.7714L2.3403 52.4754C1.89063 50.7995 1.89101 49.0347 2.34141 47.3589C2.7918 45.6832 3.67628 44.156 4.90555 42.9313C6.83724 40.988 9.55362 39.8759 12.3649 39.8759C13.6882 39.8759 14.9418 40.1239 16.0907 40.6121C16.2682 40.6883 16.4645 40.7094 16.6541 40.6728C16.8438 40.6362 17.018 40.5435 17.1544 40.4068L40.4044 17.1568C40.5405 17.0208 40.6329 16.8473 40.6698 16.6585C40.7068 16.4697 40.6865 16.2742 40.6117 16.0969C39.0559 12.3963 40.0034 7.61845 42.8651 4.73932C44.0977 3.48983 45.6491 2.602 47.3509 2.17229C49.0527 1.74258 50.8396 1.78742 52.5177 2.30195L46.7827 8.03889C46.4991 8.31767 46.2738 8.65012 46.1201 9.01687C45.9663 9.38362 45.8872 9.77731 45.8872 10.175C45.8872 10.5727 45.9663 10.9663 46.1201 11.3331C46.2738 11.6998 46.4991 12.0323 46.7827 12.3111V12.3111Z" fill="#47ABC3"/>
<path d="M56.5942 59.3788C56.3787 59.5861 56.0912 59.7015 55.7922 59.7008C55.4933 59.7001 55.2063 59.5832 54.9919 59.375L35.5587 40C35.3736 39.8344 35.1319 39.7461 34.8836 39.7533C34.6353 39.7604 34.3991 39.8626 34.2239 40.0386C34.0486 40.2146 33.9474 40.4512 33.9413 40.6996C33.9352 40.9479 34.0245 41.1892 34.1909 41.3736L53.622 60.7448C54.2033 61.328 54.9744 61.6496 55.7959 61.6496C56.6174 61.6496 57.3885 61.328 57.9814 60.7312L60.7501 57.8385C61.0332 57.5592 61.2579 57.2264 61.4112 56.8594C61.5645 56.4925 61.6434 56.0987 61.6432 55.7011C61.643 55.3034 61.5638 54.9097 61.4101 54.5429C61.2565 54.1761 61.0315 53.8435 60.7482 53.5644L41.3732 34.1894C41.1905 34.0129 40.9458 33.9153 40.6918 33.9175C40.4378 33.9197 40.1948 34.0216 40.0152 34.2012C39.8355 34.3808 39.7337 34.6238 39.7315 34.8778C39.7293 35.1318 39.8269 35.3765 40.0034 35.5592L59.3764 54.9323C59.8201 55.3779 59.8201 56.025 59.3629 56.4861L56.5942 59.3788V59.3788ZM11.3419 6.09565L5.52943 0.283149C5.34776 0.101536 5.1014 -0.000488281 4.84452 -0.000488281C4.58764 -0.000488281 4.34128 0.101536 4.15961 0.283149L0.284613 4.15815C0.103001 4.33982 0.000976562 4.58618 0.000976562 4.84305C0.000976562 5.09993 0.103001 5.34629 0.284613 5.52796L6.09711 11.3405C6.27902 11.5214 6.52505 11.6231 6.78162 11.6235C7.03819 11.6238 7.2845 11.5228 7.46693 11.3424L8.71855 10.0888L23.5327 24.903C23.6219 24.9956 23.7287 25.0695 23.8468 25.1205C23.9649 25.1714 24.092 25.1983 24.2206 25.1996C24.3493 25.2009 24.4769 25.1766 24.596 25.128C24.7151 25.0795 24.8234 25.0077 24.9144 24.9169C25.0055 24.8261 25.0776 24.718 25.1265 24.599C25.1754 24.48 25.2001 24.3525 25.1991 24.2239C25.1982 24.0953 25.1717 23.9681 25.1211 23.8498C25.0705 23.7316 24.9968 23.6246 24.9044 23.5351L10.0884 8.71902L11.34 7.4674C11.4303 7.37754 11.5021 7.27074 11.5511 7.15311C11.6001 7.03549 11.6254 6.90935 11.6256 6.78193C11.6257 6.6545 11.6008 6.52829 11.5521 6.41053C11.5034 6.29277 11.432 6.18576 11.3419 6.09565V6.09565ZM6.78105 9.28671L2.33836 4.84402L4.84355 2.33884L9.28624 6.78152L6.78105 9.28671Z" fill="#47ABC3"/>
</g>
<defs>
<clipPath id="clip0_665_39">
<rect width="62" height="62" fill="white"/>
</clipPath>
</defs>
</svg>
