<svg width="62" height="62" viewBox="0 0 62 62" fill="none" xmlns="http://www.w3.org/2000/svg">
<g clip-path="url(#clip0_665_60)">
<path d="M33.0558 3.875C33.3062 3.875 33.5465 3.77623 33.7236 3.60041C33.9007 3.4246 34.0002 3.18614 34.0002 2.9375C34.0002 2.68886 33.9007 2.4504 33.7236 2.27459C33.5465 2.09877 33.3062 2 33.0558 2H16.0558C15.8053 2 15.565 2.09877 15.3879 2.27459C15.2108 2.4504 15.1113 2.68886 15.1113 2.9375C15.1113 3.18614 15.2108 3.4246 15.3879 3.60041C15.565 3.77623 15.8053 3.875 16.0558 3.875H33.0558ZM1.8702 53.8156C-0.158469 56.6488 0.068198 58.4994 0.615976 59.5531C1.19586 60.6687 2.70698 62 6.61131 62H44.3891C48.2934 62 49.8045 60.6688 50.3844 59.5513C50.9322 58.4975 51.1589 56.6469 49.1604 53.8625L37.4134 35.2062L37.2472 34.9738C36.4029 33.7775 32.1113 26.4163 32.1113 20.2812V6.6875C32.1113 6.43886 32.0118 6.2004 31.8347 6.02459C31.6576 5.84877 31.4173 5.75 31.1669 5.75H17.9446C17.6942 5.75 17.4539 5.84877 17.2768 6.02459C17.0997 6.2004 17.0002 6.43886 17.0002 6.6875V20.2812C17.0002 26.8269 12.3441 35.2006 12.2912 35.2906L1.8702 53.8156ZM48.7071 58.6906C48.233 59.6038 46.6595 60.125 44.3891 60.125H6.61131C4.34086 60.125 2.76742 59.6038 2.29331 58.6906C1.86075 57.8581 2.25553 56.5119 3.46442 54.8169L12.907 38.0394L12.9202 38.0469C14.6391 39.0313 16.4165 40.0494 19.945 40.0494C23.4734 40.0494 25.2528 39.0331 26.9698 38.0506C28.5432 37.1506 30.0279 36.2994 33.052 36.2994C34.1985 36.2994 35.1921 36.44 36.1063 36.6931L47.5908 54.9031C48.7449 56.5119 49.1396 57.8581 48.7071 58.6906V58.6906ZM18.8891 20.2812V7.625H30.2224V20.2812C30.2224 25.6062 33.086 31.61 34.7633 34.535C34.1961 34.4655 33.6254 34.4286 33.0539 34.4244C29.5235 34.4244 27.7461 35.4406 26.0291 36.4231C24.4556 37.3231 22.971 38.1744 19.9469 38.1744C16.9228 38.1744 15.4381 37.3231 13.8665 36.4231L13.8306 36.4025L13.9175 36.2488C13.9648 36.1738 18.8891 27.4625 18.8891 20.2812Z" fill="#47ABC3"/>
</g>
<defs>
<clipPath id="clip0_665_60">
<rect width="51" height="60" fill="white" transform="translate(0 2)"/>
</clipPath>
</defs>
</svg>
