<svg width="69" height="59" viewBox="0 0 69 59" fill="none" xmlns="http://www.w3.org/2000/svg">
<g clip-path="url(#clip0_686_327)">
<path d="M59.0293 13.8278C59.2701 13.8278 59.501 13.7307 59.6713 13.5578C59.8415 13.3849 59.9372 13.1504 59.9372 12.9059V9.83606C59.9362 9.03539 59.6225 8.2678 59.065 7.70164C58.5074 7.13548 57.7514 6.81698 56.9629 6.816H52.0839L50.9708 3.48066C50.8952 3.25383 50.7355 3.0658 50.5258 2.95637C50.316 2.84694 50.0725 2.82469 49.8468 2.89435L23.4216 11.0511C23.2029 11.1321 23.0231 11.2952 22.9193 11.5068C22.8154 11.7184 22.7954 11.9623 22.8633 12.1884C22.9313 12.4146 23.082 12.6056 23.2845 12.7223C23.487 12.8389 23.7258 12.8723 23.9519 12.8156L49.5345 4.91694L51.9731 12.2274C52.0504 12.4589 52.2151 12.6498 52.431 12.758C52.6469 12.8663 52.8963 12.883 53.1243 12.8045C53.3524 12.726 53.5403 12.5588 53.6469 12.3396C53.7535 12.1203 53.77 11.8671 53.6927 11.6356L52.6994 8.65791H56.9647C57.6039 8.65791 58.1232 9.18522 58.1232 9.83422V12.9059C58.1214 13.4148 58.5281 13.8278 59.0293 13.8278Z" fill="#47ABC3"/>
<path d="M66.2763 27.6562C66.0355 27.6562 65.8046 27.7533 65.6343 27.9262C65.4641 28.0991 65.3684 28.3335 65.3684 28.578C65.3684 28.8225 65.4641 29.057 65.6343 29.2299C65.8046 29.4028 66.0355 29.4999 66.2763 29.4999C66.9137 29.4999 67.1842 29.7746 67.1842 30.4218V41.4843C67.1842 42.1314 66.9137 42.4062 66.2763 42.4062H51.75C51.1127 42.4062 50.8421 42.1314 50.8421 41.4843V32.2655C50.8421 31.6184 51.1127 31.3437 51.75 31.3437H62.6447C62.8855 31.3437 63.1165 31.2465 63.2867 31.0736C63.457 30.9008 63.5526 30.6663 63.5526 30.4218V19.3593C63.5526 17.6796 62.4831 16.5937 60.8289 16.5937H5.44737C3.2085 16.5937 1.81579 15.1795 1.81579 12.9062C1.81579 10.6328 3.2085 9.21866 5.44737 9.21866H14.6643L9.16974 11.0587C9.0524 11.0931 8.9431 11.1511 8.84837 11.2294C8.75364 11.3076 8.67543 11.4045 8.61842 11.5141C8.56141 11.6238 8.52677 11.744 8.51658 11.8675C8.50638 11.9911 8.52084 12.1155 8.55909 12.2333C8.59734 12.351 8.6586 12.4597 8.73919 12.5529C8.81978 12.646 8.91805 12.7217 9.02812 12.7754C9.13819 12.8291 9.2578 12.8597 9.37979 12.8654C9.50178 12.8711 9.62364 12.8517 9.73808 12.8084L42.6384 1.79572C42.7516 1.75771 42.8564 1.69741 42.9467 1.61828C43.037 1.53915 43.1111 1.44273 43.1647 1.33452C43.2184 1.22632 43.2505 1.10845 43.2592 0.987651C43.268 0.86685 43.2532 0.745479 43.2158 0.63047C43.1784 0.515461 43.119 0.409065 43.041 0.317357C42.9631 0.22565 42.8682 0.150427 42.7616 0.0959825C42.655 0.0415384 42.5389 0.00893959 42.42 4.74336e-05C42.301 -0.00884472 42.1815 0.00614388 42.0682 0.0441575L20.0972 7.40072C20.0554 7.39334 20.0173 7.37491 19.9737 7.37491H5.44737C2.18984 7.37491 0 9.59847 0 12.9062V53.4687C0 56.7763 2.18984 58.9999 5.44737 58.9999H60.8289C62.4831 58.9999 63.5526 57.9139 63.5526 56.2343V47.0155C63.5526 46.771 63.457 46.5366 63.2867 46.3637C63.1165 46.1908 62.8855 46.0937 62.6447 46.0937C62.4039 46.0937 62.173 46.1908 62.0028 46.3637C61.8325 46.5366 61.7368 46.771 61.7368 47.0155V56.2343C61.7368 56.8814 61.4663 57.1562 60.8289 57.1562H5.44737C3.2085 57.1562 1.81579 55.742 1.81579 53.4687V17.1689C2.74729 17.9673 3.98021 18.4374 5.44737 18.4374H60.8289C61.4663 18.4374 61.7368 18.7121 61.7368 19.3593V29.4999H51.75C50.0958 29.4999 49.0263 30.5859 49.0263 32.2655V41.4843C49.0263 43.1639 50.0958 44.2499 51.75 44.2499H66.2763C67.9305 44.2499 69 43.1639 69 41.4843V30.4218C69 28.7421 67.9305 27.6562 66.2763 27.6562Z" fill="#47ABC3"/>
<path d="M58.1053 38.7188C59.1082 38.7188 59.9211 37.8933 59.9211 36.875C59.9211 35.8567 59.1082 35.0312 58.1053 35.0312C57.1025 35.0312 56.2896 35.8567 56.2896 36.875C56.2896 37.8933 57.1025 38.7188 58.1053 38.7188Z" fill="#47ABC3"/>
</g>
<defs>
<clipPath id="clip0_686_327">
<rect width="69" height="59" fill="white"/>
</clipPath>
</defs>
</svg>
