<svg width="70" height="62" viewBox="0 0 70 62" fill="none" xmlns="http://www.w3.org/2000/svg">
<path d="M0.972201 61.9671C1.22122 62.0318 1.48578 61.996 1.70853 61.8676C1.93129 61.7393 2.09429 61.5286 2.1622 61.2812C4.16498 53.8354 12.3044 51.9057 17.1694 50.7509C18.3886 50.4622 19.3511 50.2336 19.9772 49.9643C25.5189 47.5676 27.3253 43.712 27.8658 40.8987C27.898 40.7314 27.8852 40.5585 27.8289 40.3976C27.7726 40.2367 27.6746 40.0934 27.545 39.9823C24.6594 37.5004 22.225 33.7745 20.6889 29.4888C20.6455 29.3659 20.5774 29.2531 20.4886 29.1575C18.4566 26.9565 17.29 24.6295 17.29 22.7754C17.29 21.6923 17.7003 20.9657 18.6239 20.4174C18.7622 20.335 18.8778 20.2196 18.9603 20.0816C19.0428 19.9436 19.0895 19.7874 19.0964 19.6269C19.5261 9.7573 26.5805 1.98792 35.2333 1.93755L35.4414 1.95111C44.1369 2.07123 51.1466 10.0072 51.3975 20.0164C51.401 20.1532 51.4337 20.2877 51.4933 20.4109C51.553 20.5342 51.6383 20.6434 51.7436 20.7313C52.3522 21.2447 52.6361 21.8957 52.6361 22.7792C52.6361 24.3312 51.8058 26.2396 50.3008 28.15C50.2291 28.2419 50.1738 28.3455 50.1375 28.4561C48.5819 33.3696 45.7897 37.7077 42.4803 40.3621C42.3432 40.4724 42.2386 40.6176 42.1777 40.7824C42.1167 40.9471 42.1017 41.1253 42.1341 41.2979C42.6747 44.1092 44.4811 47.9629 50.0228 50.3634C50.678 50.6463 51.695 50.8672 52.9841 51.1442C57.8005 52.1827 65.8603 53.9245 67.8378 61.2812C67.8709 61.4041 67.9281 61.5193 68.006 61.6202C68.0838 61.7211 68.1809 61.8057 68.2916 61.8692C68.4023 61.9327 68.5244 61.9739 68.6511 61.9903C68.7777 62.0068 68.9064 61.9983 69.0297 61.9652C69.153 61.9321 69.2686 61.8751 69.3699 61.7976C69.4711 61.72 69.556 61.6233 69.6197 61.513C69.6835 61.4027 69.7248 61.281 69.7413 61.1548C69.7579 61.0286 69.7493 60.9004 69.7161 60.7775C67.4314 52.2777 58.3003 50.3072 53.3964 49.2494C52.2589 49.0033 51.2769 48.7921 50.7986 48.5829C47.1819 47.0174 44.9536 44.6323 44.1661 41.4819C47.5241 38.6086 50.3339 34.1756 51.94 29.204C53.6453 26.9952 54.5825 24.7206 54.5825 22.7773C54.5825 21.4811 54.1625 20.4 53.3303 19.5552C52.8675 8.69749 45.0916 0.147297 35.4414 0.00973437L35.1516 0.00585938C25.6764 0.0562344 17.8675 8.38167 17.185 19.0515C15.9678 19.9427 15.3494 21.1924 15.3494 22.7792C15.3494 25.0713 16.6503 27.8129 18.9272 30.3277C20.5003 34.6348 22.9386 38.4187 25.8416 41.0673C25.058 44.2293 22.8278 46.6221 19.2033 48.1895C18.7347 48.393 17.8014 48.6158 16.7203 48.8716C11.7794 50.0418 2.58609 52.2215 0.283868 60.7814C0.217381 61.0296 0.252544 61.2939 0.381626 61.5163C0.510708 61.7386 0.723139 61.9008 0.972201 61.9671V61.9671Z" fill="#47ABC3"/>
</svg>
