<svg width="69" height="60" viewBox="0 0 69 60" fill="none" xmlns="http://www.w3.org/2000/svg">
<g clip-path="url(#clip0_686_336)">
<path d="M50.3514 0C45.7272 0.00231816 41.2699 1.73706 37.8493 4.86563C36.5492 6.04648 35.4216 7.40618 34.5 8.90438C33.5779 7.40596 32.4504 6.04571 31.1507 4.86375C27.7295 1.73649 23.2724 0.00252561 18.6486 0C8.36578 0 0 8.41125 0 18.75C0 25.7287 2.15951 31.2375 7.21889 37.1719C14.5702 45.7969 33.1759 58.9594 33.9648 59.5163C34.1212 59.6278 34.3082 59.6878 34.5 59.6878C34.6918 59.6878 34.8788 59.6278 35.0352 59.5163C35.8241 58.9594 54.4298 45.7969 61.783 37.1719C66.8405 31.2375 69 25.7287 69 18.75C69 8.41125 60.6342 0 50.3514 0ZM60.3675 35.9531C53.8498 43.5956 37.6535 55.3425 34.5 57.6C31.3465 55.3425 15.1502 43.5956 8.63432 35.9531C3.88824 30.3862 1.86486 25.2412 1.86486 18.75C1.86486 9.44438 9.39519 1.875 18.6486 1.875C22.8017 1.875 26.7981 3.42937 29.8975 6.25313C31.4524 7.66696 32.7302 9.36119 33.6645 11.2481C33.9816 11.8856 35.0184 11.8856 35.3355 11.2481C36.2694 9.36148 37.5472 7.6678 39.1025 6.255C42.1796 3.43886 46.1904 1.87719 50.3514 1.875C59.6048 1.875 67.1351 9.44438 67.1351 18.75C67.1351 25.2412 65.1118 30.3862 60.3675 35.9531Z" fill="#47ABC3"/>
</g>
<defs>
<clipPath id="clip0_686_336">
<rect width="69" height="60" fill="white"/>
</clipPath>
</defs>
</svg>
