<svg width="23" height="32" viewBox="0 0 23 32" fill="none" xmlns="http://www.w3.org/2000/svg">
<path d="M11.5 1C5.70312 1 1 5.42738 1 10.8803C1 17.1546 8 27.0977 10.5703 30.532C10.677 30.677 10.8168 30.7949 10.9784 30.8763C11.14 30.9576 11.3187 31 11.5 31C11.6813 31 11.86 30.9576 12.0216 30.8763C12.1832 30.7949 12.323 30.677 12.4297 30.532C15 27.0991 22 17.1597 22 10.8803C22 5.42738 17.2969 1 11.5 1Z" stroke="white" stroke-width="2" stroke-linecap="round" stroke-linejoin="round"/>
<path d="M11.5 15C13.433 15 15 13.433 15 11.5C15 9.567 13.433 8 11.5 8C9.567 8 8 9.567 8 11.5C8 13.433 9.567 15 11.5 15Z" stroke="white" stroke-width="2" stroke-linecap="round" stroke-linejoin="round"/>
</svg>
