<svg width="22" height="31" viewBox="0 0 22 31" fill="none" xmlns="http://www.w3.org/2000/svg">
<path d="M11 1C5.47917 1 1 5.15549 1 10.2735C1 16.1626 7.66667 25.495 10.1146 28.7184C10.2162 28.8545 10.3494 28.9652 10.5032 29.0415C10.6571 29.1179 10.8273 29.1577 11 29.1577C11.1727 29.1577 11.3429 29.1179 11.4968 29.0415C11.6506 28.9652 11.7838 28.8545 11.8854 28.7184C14.3333 25.4963 21 16.1673 21 10.2735C21 5.15549 16.5208 1 11 1Z" stroke="black" stroke-width="2" stroke-linecap="round" stroke-linejoin="round"/>
<path d="M11.5 14.5934C13.433 14.5934 15 13.0719 15 11.195C15 9.31818 13.433 7.79669 11.5 7.79669C9.567 7.79669 8 9.31818 8 11.195C8 13.0719 9.567 14.5934 11.5 14.5934Z" stroke="black" stroke-width="2" stroke-linecap="round" stroke-linejoin="round"/>
</svg>
