<svg width="42" height="42" viewBox="0 0 42 42" fill="none" xmlns="http://www.w3.org/2000/svg">
<path d="M28.656 5.68723C30.6848 5.69329 32.6288 6.50193 34.0635 7.93654C35.4981 9.37116 36.3067 11.3152 36.3128 13.344V28.656C36.3067 30.6848 35.4981 32.6288 34.0635 34.0635C32.6288 35.4981 30.6848 36.3067 28.656 36.3128H13.344C11.3152 36.3067 9.37116 35.4981 7.93654 34.0635C6.50193 32.6288 5.69329 30.6848 5.68723 28.656V13.344C5.69329 11.3152 6.50193 9.37116 7.93654 7.93654C9.37116 6.50193 11.3152 5.69329 13.344 5.68723H28.656V5.68723ZM28.656 2.625H13.344C7.44844 2.625 2.625 7.44844 2.625 13.344V28.656C2.625 34.5516 7.44844 39.375 13.344 39.375H28.656C34.5516 39.375 39.375 34.5516 39.375 28.656V13.344C39.375 7.44844 34.5516 2.625 28.656 2.625V2.625Z" fill="white"/>
<path d="M30.9529 13.3438C30.4986 13.3438 30.0545 13.209 29.6768 12.9567C29.2991 12.7043 29.0047 12.3456 28.8308 11.9259C28.657 11.5062 28.6115 11.0443 28.7001 10.5988C28.7887 10.1532 29.0075 9.74396 29.3287 9.42274C29.6499 9.10152 30.0592 8.88276 30.5048 8.79413C30.9503 8.70551 31.4121 8.751 31.8318 8.92484C32.2515 9.09869 32.6103 9.39308 32.8626 9.7708C33.115 10.1485 33.2497 10.5926 33.2497 11.0469C33.2504 11.3487 33.1914 11.6477 33.0762 11.9266C32.961 12.2056 32.7919 12.459 32.5784 12.6725C32.365 12.8859 32.1116 13.055 31.8326 13.1702C31.5536 13.2854 31.2547 13.3444 30.9529 13.3438V13.3438ZM21 14.8745C22.2115 14.8745 23.3957 15.2337 24.403 15.9067C25.4103 16.5798 26.1954 17.5364 26.659 18.6557C27.1226 19.7749 27.2439 21.0065 27.0076 22.1947C26.7712 23.3829 26.1879 24.4743 25.3312 25.3309C24.4746 26.1876 23.3832 26.771 22.195 27.0073C21.0068 27.2437 19.7752 27.1224 18.656 26.6587C17.5367 26.1951 16.5801 25.41 15.907 24.4027C15.234 23.3955 14.8747 22.2112 14.8747 20.9997C14.8765 19.3757 15.5224 17.8188 16.6707 16.6704C17.819 15.5221 19.376 14.8762 21 14.8745V14.8745ZM21 11.8122C19.1829 11.8122 17.4066 12.3511 15.8957 13.3606C14.3848 14.3701 13.2072 15.805 12.5119 17.4838C11.8165 19.1626 11.6345 21.0099 11.989 22.7921C12.3435 24.5743 13.2186 26.2114 14.5035 27.4963C15.7884 28.7812 17.4254 29.6562 19.2076 30.0107C20.9898 30.3652 22.8371 30.1833 24.5159 29.4879C26.1947 28.7925 27.6296 27.6149 28.6391 26.104C29.6487 24.5932 30.1875 22.8168 30.1875 20.9997C30.1875 18.5631 29.2195 16.2262 27.4965 14.5032C25.7736 12.7802 23.4367 11.8122 21 11.8122V11.8122Z" fill="white"/>
</svg>
