<svg width="27" height="27" viewBox="0 0 27 27" fill="none" xmlns="http://www.w3.org/2000/svg">
<path d="M18.4217 3.65607C19.726 3.65997 20.9757 4.17981 21.8979 5.10206C22.8202 6.02432 23.34 7.27404 23.3439 8.5783V18.4217C23.34 19.726 22.8202 20.9757 21.8979 21.8979C20.9757 22.8202 19.726 23.34 18.4217 23.3439H8.5783C7.27404 23.34 6.02432 22.8202 5.10206 21.8979C4.17981 20.9757 3.65997 19.726 3.65607 18.4217V8.5783C3.65997 7.27404 4.17981 6.02432 5.10206 5.10206C6.02432 4.17981 7.27404 3.65997 8.5783 3.65607H18.4217V3.65607ZM18.4217 1.6875H8.5783C4.78828 1.6875 1.6875 4.78828 1.6875 8.5783V18.4217C1.6875 22.2117 4.78828 25.3125 8.5783 25.3125H18.4217C22.2117 25.3125 25.3125 22.2117 25.3125 18.4217V8.5783C25.3125 4.78828 22.2117 1.6875 18.4217 1.6875V1.6875Z" fill="black"/>
<path d="M19.8983 8.57831C19.6062 8.57831 19.3208 8.49171 19.0779 8.32946C18.8351 8.16722 18.6459 7.93661 18.5341 7.6668C18.4223 7.397 18.3931 7.10011 18.4501 6.81368C18.507 6.52726 18.6477 6.26416 18.8542 6.05766C19.0607 5.85116 19.3238 5.71053 19.6102 5.65356C19.8966 5.59658 20.1935 5.62582 20.4633 5.73758C20.7331 5.84934 20.9637 6.03859 21.126 6.28141C21.2882 6.52423 21.3748 6.80971 21.3748 7.10175C21.3752 7.29577 21.3373 7.48796 21.2633 7.6673C21.1892 7.84663 21.0805 8.00957 20.9433 8.14676C20.8061 8.28396 20.6431 8.3927 20.4638 8.46676C20.2845 8.54082 20.0923 8.57873 19.8983 8.57831V8.57831ZM13.5 9.56233C14.2788 9.56233 15.0401 9.79327 15.6877 10.226C16.3352 10.6586 16.8399 11.2736 17.1379 11.9931C17.436 12.7126 17.514 13.5044 17.362 14.2682C17.2101 15.032 16.8351 15.7337 16.2844 16.2844C15.7337 16.8351 15.032 17.2101 14.2682 17.362C13.5044 17.514 12.7126 17.436 11.9931 17.1379C11.2736 16.8399 10.6586 16.3352 10.2259 15.6877C9.79327 15.0401 9.56233 14.2788 9.56233 13.5C9.56344 12.456 9.97866 11.4551 10.7169 10.7169C11.4551 9.97867 12.456 9.56345 13.5 9.56233V9.56233ZM13.5 7.59376C12.3319 7.59376 11.1899 7.94015 10.2187 8.58914C9.24739 9.23813 8.49037 10.1606 8.04334 11.2398C7.59631 12.319 7.47935 13.5066 7.70724 14.6523C7.93513 15.798 8.49765 16.8504 9.32365 17.6764C10.1497 18.5024 11.2021 19.0649 12.3478 19.2928C13.4935 19.5207 14.681 19.4037 15.7602 18.9567C16.8395 18.5096 17.7619 17.7526 18.4109 16.7813C19.0599 15.8101 19.4063 14.6682 19.4063 13.5C19.4063 11.9336 18.784 10.4313 17.6764 9.32366C16.5687 8.21602 15.0664 7.59376 13.5 7.59376V7.59376Z" fill="black"/>
</svg>
