<svg width="77" height="54" viewBox="0 0 77 54" fill="none" xmlns="http://www.w3.org/2000/svg">
<path d="M2.6387 41.6444V52.0001H1.26601V41.6444H2.6387ZM9.01853 41.6444L4.52349 47.3414H2.09105L1.87767 46.2035H3.70556L7.31867 41.6444H9.01853ZM7.63872 52.0001L3.74824 47.1636L4.51638 45.9616L9.31725 52.0001H7.63872ZM14.3813 47.9389H11.6146V46.8222H14.3813C14.9171 46.8222 15.3509 46.7369 15.6829 46.5662C16.0148 46.3955 16.2566 46.1584 16.4083 45.8549C16.5648 45.5515 16.643 45.2053 16.643 44.8165C16.643 44.4609 16.5648 44.1266 16.4083 43.8137C16.2566 43.5007 16.0148 43.2494 15.6829 43.0598C15.3509 42.8654 14.9171 42.7682 14.3813 42.7682H11.9346V52.0001H10.5619V41.6444H14.3813C15.1636 41.6444 15.8251 41.7795 16.3656 42.0498C16.9062 42.3201 17.3163 42.6947 17.5961 43.1736C17.8758 43.6477 18.0157 44.1906 18.0157 44.8023C18.0157 45.4661 17.8758 46.0328 17.5961 46.5022C17.3163 46.9716 16.9062 47.3296 16.3656 47.5761C15.8251 47.818 15.1636 47.9389 14.3813 47.9389ZM21.1807 49.6245L26.2803 41.6444H27.653V52.0001H26.2803V44.0128L21.1807 52.0001H19.8152V41.6444H21.1807V49.6245ZM36.4013 48.707H37.7669C37.6957 49.3614 37.5085 49.9469 37.205 50.4638C36.9015 50.9806 36.4724 51.3908 35.9176 51.6942C35.3629 51.9929 34.6706 52.1423 33.8408 52.1423C33.2339 52.1423 32.6815 52.0285 32.1836 51.8009C31.6905 51.5733 31.2661 51.2509 30.9105 50.8336C30.5549 50.4116 30.2799 49.9066 30.0855 49.3187C29.8958 48.726 29.801 48.0669 29.801 47.3414V46.3101C29.801 45.5847 29.8958 44.928 30.0855 44.34C30.2799 43.7473 30.5573 43.2399 30.9176 42.8179C31.2827 42.3959 31.7213 42.0711 32.2334 41.8435C32.7455 41.6159 33.3216 41.5022 33.9617 41.5022C34.7441 41.5022 35.4056 41.6491 35.9461 41.9431C36.4866 42.2371 36.9063 42.6449 37.205 43.1665C37.5085 43.6833 37.6957 44.2831 37.7669 44.9659H36.4013C36.3349 44.4822 36.2116 44.0674 36.0314 43.7212C35.8513 43.3703 35.5952 43.1001 35.2633 42.9104C34.9314 42.7207 34.4975 42.6259 33.9617 42.6259C33.5018 42.6259 33.0964 42.7136 32.7455 42.8891C32.3994 43.0645 32.1078 43.3134 31.8707 43.6359C31.6384 43.9583 31.4629 44.3447 31.3444 44.7952C31.2258 45.2456 31.1666 45.7459 31.1666 46.2959V47.3414C31.1666 47.8488 31.2187 48.3253 31.323 48.771C31.4321 49.2167 31.5957 49.6079 31.8138 49.9446C32.0319 50.2812 32.3093 50.5468 32.6459 50.7412C32.9826 50.9308 33.3809 51.0257 33.8408 51.0257C34.424 51.0257 34.8887 50.9332 35.2349 50.7483C35.581 50.5634 35.8418 50.2978 36.0172 49.9517C36.1974 49.6056 36.3254 49.1907 36.4013 48.707ZM43.2505 41.6444V52.0001H41.8992V41.6444H43.2505ZM46.5791 41.6444V42.7682H38.5777V41.6444H46.5791ZM51.38 42.5619L47.9518 52.0001H46.5507L50.4981 41.6444H51.4014L51.38 42.5619ZM54.2534 52.0001L50.8181 42.5619L50.7968 41.6444H51.7001L55.6617 52.0001H54.2534ZM54.0756 48.1665V49.2902H48.2577V48.1665H54.0756ZM63.8338 41.6444V42.7682H59.097V41.6444H63.8338ZM65.0145 41.6444V52.0001H63.6418V41.6444H65.0145ZM58.6276 41.6444H59.9931L59.7584 46.7155C59.7252 47.4458 59.6683 48.0977 59.5877 48.6715C59.5119 49.2404 59.4028 49.7359 59.2606 50.1579C59.1183 50.5752 58.9334 50.9213 58.7058 51.1964C58.4782 51.4666 58.1984 51.6681 57.8665 51.8009C57.5394 51.9337 57.1458 52.0001 56.6859 52.0001H56.316V50.8834L56.6005 50.8621C56.866 50.8431 57.0936 50.7838 57.2833 50.6843C57.4777 50.58 57.6413 50.4235 57.7741 50.2148C57.9116 50.0062 58.023 49.7359 58.1084 49.404C58.1937 49.0721 58.2601 48.6667 58.3075 48.1878C58.3597 47.7042 58.4 47.1399 58.4284 46.4951L58.6276 41.6444ZM74.2748 41.6444V42.7682H69.538V41.6444H74.2748ZM75.4555 41.6444V52.0001H74.0828V41.6444H75.4555ZM69.0686 41.6444H70.4342L70.1994 46.7155C70.1663 47.4458 70.1094 48.0977 70.0287 48.6715C69.9529 49.2404 69.8438 49.7359 69.7016 50.1579C69.5593 50.5752 69.3744 50.9213 69.1468 51.1964C68.9192 51.4666 68.6395 51.6681 68.3075 51.8009C67.9804 51.9337 67.5868 52.0001 67.1269 52.0001H66.757V50.8834L67.0415 50.8621C67.3071 50.8431 67.5347 50.7838 67.7243 50.6843C67.9187 50.58 68.0823 50.4235 68.2151 50.2148C68.3526 50.0062 68.464 49.7359 68.5494 49.404C68.6347 49.0721 68.7011 48.6667 68.7485 48.1878C68.8007 47.7042 68.841 47.1399 68.8694 46.4951L69.0686 41.6444Z" fill="#47ABC3"/>
<path d="M33.6162 4.89927L38.2633 1.00018L43.7768 6.77083L44.7934 9.81211L47.4 17.6103L46.8486 24.1607L44.4857 29.0736L36.8456 35.0002L28.1815 26.8121L27 15.2708L33.6162 4.89927Z" fill="url(#paint0_linear_81_475)"/>
<path d="M38.2633 1.00018L33.6162 4.89927M38.2633 1.00018L43.7768 6.77083M38.2633 1.00018L39.5236 3.96349M33.6162 4.89927L27 15.2708M33.6162 4.89927L31.2533 17.6103M27 15.2708L28.1815 26.8121M27 15.2708L28.1815 18.936M28.1815 26.8121L36.8456 35.0002M28.1815 26.8121V18.936M28.1815 26.8121L35.1127 28.9956M36.8456 35.0002L44.4857 29.0736L46.8486 24.1607M36.8456 35.0002L35.1127 28.9956M36.8456 35.0002L38.1846 32.1149M46.8486 24.1607L47.4 17.6103M46.8486 24.1607L43.2255 17.5323M46.8486 24.1607L39.2888 31.1011M47.4 17.6103L44.0131 16.2846M47.4 17.6103L44.7934 9.81211M43.7768 6.77083L44.7934 9.81211M43.7768 6.77083L39.5236 3.96349M31.2533 17.6103L28.1815 18.936M31.2533 17.6103L36.4517 26.1103M31.2533 17.6103L38.7359 7.16073M35.1127 28.9956L38.1846 32.1149M35.1127 28.9956L36.4517 26.1103M38.1846 32.1149L39.2888 31.1011M43.2255 17.5323L44.0131 16.2846M43.2255 17.5323L40.8625 17.6103M44.0131 16.2846L38.7359 7.16073M40.8625 17.6103L36.4517 26.1103M40.8625 17.6103L38.7359 7.16073M36.4517 26.1103L39.2888 31.1011M38.7359 7.16073L44.7934 9.81211M38.7359 7.16073L39.5236 3.96349" stroke="white" stroke-width="0.272"/>
<defs>
<linearGradient id="paint0_linear_81_475" x1="37.2" y1="4.36584" x2="37.2" y2="35.0002" gradientUnits="userSpaceOnUse">
<stop stop-color="#AFF0FF"/>
<stop offset="0.119792" stop-color="#A3E3F2"/>
<stop offset="0.151042" stop-color="#A0E0EF"/>
<stop offset="0.192708" stop-color="#9BDBEA"/>
<stop offset="0.302083" stop-color="#90D0DF"/>
<stop offset="0.369792" stop-color="#87C6D5"/>
<stop offset="0.46875" stop-color="#78B7C6"/>
<stop offset="0.541667" stop-color="#6EACBB"/>
<stop offset="0.666667" stop-color="#5C9AA9"/>
<stop offset="0.75" stop-color="#538D9B"/>
<stop offset="0.84375" stop-color="#487E8B"/>
<stop offset="1" stop-color="#1D414A"/>
</linearGradient>
</defs>
</svg>
