<svg width="27" height="27" viewBox="0 0 27 27" fill="none" xmlns="http://www.w3.org/2000/svg">
<g clip-path="url(#clip0_289_21)">
<path d="M25.2197 20.1495C24.2653 19.2159 21.954 17.8535 20.8326 17.3044C19.3722 16.5902 19.252 16.5319 18.1041 17.3598C17.3385 17.9124 16.8295 18.406 15.9334 18.2205C15.0373 18.0349 13.0902 16.9887 11.3852 15.3387C9.68024 13.6886 8.54019 11.7432 8.34848 10.8762C8.15677 10.0091 8.67361 9.52075 9.23732 8.77565C10.0318 7.72538 9.97172 7.55034 9.29261 6.13248C8.76315 5.0297 7.31901 2.80663 6.35384 1.88473C5.32136 0.894557 5.32136 1.0696 4.65608 1.33801C4.11446 1.55926 3.59485 1.8282 3.10376 2.14146C2.1422 2.7617 1.60853 3.27692 1.23533 4.0512C0.862118 4.82548 0.694446 6.64069 2.62178 10.0401C4.54911 13.4394 5.9013 15.1776 8.70005 17.8873C11.4988 20.597 13.6509 22.054 16.797 23.7671C20.6889 25.8833 22.1818 25.4708 22.9816 25.1091C23.7815 24.7473 24.3146 24.2338 24.9547 23.3003C25.2781 22.8243 25.5558 22.3203 25.784 21.7949C26.0611 21.1513 26.2413 21.1513 25.2197 20.1495Z" stroke="black" stroke-width="2" stroke-miterlimit="10"/>
</g>
<defs>
<clipPath id="clip0_289_21">
<rect width="27" height="27" fill="white"/>
</clipPath>
</defs>
</svg>
