<svg width="36" height="36" viewBox="0 0 36 36" fill="none" xmlns="http://www.w3.org/2000/svg">
<path fill-rule="evenodd" clip-rule="evenodd" d="M29.1607 6.82742C27.7046 5.37059 25.9747 4.21616 24.0706 3.43059C22.1665 2.64501 20.1259 2.24381 18.0661 2.25007C9.42188 2.25007 2.385 9.25179 2.38148 17.8594C2.37766 20.6003 3.10015 23.2933 4.47539 25.6641L2.25 33.7501L10.5645 31.5795C12.8659 32.8263 15.4423 33.4789 18.0598 33.478H18.0661C26.7096 33.478 33.7458 26.4755 33.75 17.8686C33.7552 15.8159 33.3522 13.7826 32.5643 11.8871C31.7764 9.99154 30.6195 8.27164 29.1607 6.82742V6.82742ZM18.0661 30.8434H18.0605C15.7271 30.844 13.4361 30.2196 11.4258 29.0349L10.9498 28.7537L6.01594 30.0418L7.33289 25.2542L7.02281 24.762C5.71808 22.6964 5.02681 20.3027 5.02945 17.8594C5.02945 10.7066 10.8802 4.88679 18.071 4.88679C21.5205 4.88063 24.8313 6.2449 27.275 8.67953C29.7187 11.1142 31.0953 14.4198 31.102 17.8693C31.0992 25.0229 25.2513 30.8434 18.0661 30.8434V30.8434ZM25.2162 21.1269C24.8245 20.9314 22.8959 19.9878 22.5387 19.8577C22.1815 19.7277 21.9178 19.6623 21.657 20.0532C21.3961 20.4441 20.6445 21.3188 20.4159 21.5825C20.1874 21.8462 19.9589 21.875 19.5673 21.6795C19.1756 21.4841 17.9121 21.0727 16.4152 19.7438C15.2501 18.7095 14.464 17.4327 14.2355 17.0424C14.007 16.6522 14.2109 16.4405 14.407 16.2465C14.5835 16.0714 14.7987 15.7909 14.9948 15.563C15.191 15.3352 15.2564 15.1721 15.3865 14.9119C15.5166 14.6518 15.4519 14.424 15.3541 14.2292C15.2564 14.0344 14.4724 12.1142 14.1462 11.333C13.8277 10.5723 13.5049 10.6756 13.2645 10.6637C13.0359 10.6524 12.7723 10.6496 12.5128 10.6496C12.3145 10.6548 12.1193 10.7008 11.9395 10.7847C11.7598 10.8687 11.5992 10.9888 11.468 11.1376C11.1087 11.5285 10.0962 12.4735 10.0962 14.3916C10.0962 16.3098 11.5024 18.166 11.6965 18.4262C11.8905 18.6863 14.4598 22.6259 18.3909 24.3155C19.1209 24.6282 19.8668 24.9023 20.6255 25.1368C21.5641 25.4335 22.4184 25.392 23.0934 25.2915C23.8465 25.1797 25.4138 24.3479 25.7393 23.4366C26.0648 22.5254 26.0655 21.7449 25.9678 21.5825C25.8701 21.4201 25.6085 21.3216 25.2162 21.1269V21.1269Z" fill="white"/>
</svg>
